<svg width="8" height="13" viewBox="0 0 8 13" fill="none" xmlns="http://www.w3.org/2000/svg">
<path d="M0.792437 10.5296L2.75194 12.4891C3.08537 12.8073 3.52855 12.9849 3.98944 12.9849C4.45033 12.9849 4.89351 12.8073 5.22694 12.4891L7.18644 10.5296C7.32713 10.389 7.4062 10.1982 7.40625 9.99932C7.4063 9.80039 7.32732 9.60959 7.18669 9.46889C7.04606 9.3282 6.85529 9.24913 6.65636 9.24908C6.45743 9.24903 6.26663 9.32801 6.12594 9.46864L4.73544 10.8586L4.72394 1.73364C4.72394 1.53473 4.64492 1.34396 4.50427 1.20331C4.36361 1.06266 4.17285 0.983643 3.97394 0.983643C3.77502 0.983643 3.58426 1.06266 3.44361 1.20331C3.30295 1.34396 3.22394 1.53473 3.22394 1.73364L3.23544 10.8491L1.85294 9.46864C1.71148 9.33202 1.52203 9.25643 1.32539 9.25814C1.12874 9.25985 0.940628 9.33872 0.801572 9.47778C0.662516 9.61684 0.583639 9.80494 0.58193 10.0016C0.580221 10.1982 0.655818 10.3877 0.792437 10.5291V10.5296Z" fill="#2EC276"/>
</svg>
